<svg width="142" height="27" viewBox="0 0 142 27" fill="none" xmlns="http://www.w3.org/2000/svg">
<g clip-path="url(#clip0_19_2)">
<path fill-rule="evenodd" clip-rule="evenodd" d="M141.35 7.85L141.6 8.4L141.8 8.9L141.95 9.55C141.95 9.88333 141.75 10.35 141.35 10.95L141.2 11.2H88.1005V12.1H92.0005V15.5L92.5505 16.05C92.8505 16.2833 93.0005 16.6833 93.0005 17.25L92.9005 17.65L92.8005 17.8V17.95L92.5505 18.55H92.1005H89.7505H83.7505H72.0505L71.8005 19.05L72.0505 19.2L72.4005 19.55L72.1505 20.3H70.1505L69.9005 20.05L69.2505 18.55C68.9172 17.7833 68.8838 17.15 69.1505 16.65C69.1505 16.25 69.3505 16.05 69.7505 16.05H69.9005C70.7338 16.05 71.2505 16.1667 71.4505 16.4C71.9172 16.4 72.4672 16.2667 73.1005 16L63.4005 15.9L62.1505 16.25L59.8505 16.9L57.4505 17.55C56.7505 17.7167 56.3672 17.85 56.3005 17.95V21.45L44.8505 22.65V19.05C44.2505 19.05 43.8838 19.1333 43.7505 19.3L42.9505 19.95L41.4505 20.75L39.1505 20.95C38.2838 20.8833 37.3005 20.5167 36.2005 19.85L36.0005 19.95H35.6005L35.5505 21.5L35.2005 23.5L34.6005 25.4L33.9005 26.4L31.5505 26.65L28.0505 26.2L24.6505 25.65L22.7505 25L21.3505 23.5L19.8505 22.15L18.9005 21.45H12.3505L11.8505 24.65C11.8172 24.9167 11.7172 25.05 11.5505 25.05L10.9505 25.4L9.25049 25.05H7.25049H5.95049L4.95049 25.2L3.40049 25.45L1.80049 25.8L0.600488 26.05H0.250488L0.100488 25.9L0.000488281 25.05V23.15V19.3L0.250488 14.85V11.55C0.250488 11.2833 0.583822 11 1.25049 10.7L5.70049 10.4H7.00049L7.10049 10.3L7.25049 10.2L7.50049 10.05L7.90049 9.75H19.8005C20.0672 9.78333 20.3338 9.93333 20.6005 10.2L21.9505 11.55H35.4505L35.8505 10.3L36.1005 9.05V8.75H36.2005L38.1505 8.4L39.7505 8.1L40.2505 8C40.2838 7.9 40.3838 7.81667 40.5505 7.75H44.7505V6.5H43.2005L41.9505 6.7L39.5505 7L36.7505 7.25L34.3005 7.1L34.2005 6.85V6.7L34.0505 4.55V3.2C34.0505 2.93333 34.1005 2.75 34.2005 2.65L34.3005 2.55H34.5505L35.6005 2.45L38.0005 2.3L40.8005 2.15L42.8005 2.3H44.7505H47.1505L49.3005 2.25L50.7005 2.15V1.3L50.6005 1.05V0.25L54.7505 0H54.8005L55.3005 1.4L55.1505 1.55C55.0838 1.68333 54.9672 1.75 54.8005 1.75V2H62.0505L64.4505 1.65L67.7005 1.3L70.7505 1.05L72.4005 1.25L72.6005 1.4L72.7005 7.1H72.4005L62.6505 6.5V6.7L61.2505 6.45L58.8505 6.5V7.65H141.35V7.85ZM42.4505 17.7C42.4505 17 42.0672 16.65 41.3005 16.65H38.5005C37.7338 16.65 37.3505 17 37.3505 17.7C37.3505 18.5333 37.7338 18.95 38.5005 18.95H41.3005C42.0672 18.95 42.4505 18.5333 42.4505 17.7ZM27.1505 23.1C27.9838 23.3333 28.9672 23.2 30.1005 22.7L31.9505 21.1L32.4505 19.6C32.5505 18.9333 32.4838 18.4167 32.2505 18.05C32.0838 17.4167 31.4672 17 30.4005 16.8L27.1005 16.95C26.5338 17.25 26.1338 17.5 25.9005 17.7L25.1505 18.7C24.6172 19.5667 24.5505 20.5 24.9505 21.5C25.4172 22.4667 26.1505 23 27.1505 23.1Z" fill="white"/>
</g>
<defs>
<clipPath id="clip0_19_2">
<rect width="141.95" height="26.7" fill="white" transform="translate(0.000488281)"/>
</clipPath>
</defs>
</svg>
